<svg xmlns="http://www.w3.org/2000/svg" width="1009" height="1009" style="shape-rendering:geometricPrecision;text-rendering:geometricPrecision;image-rendering:optimizeQuality;fill-rule:evenodd;clip-rule:evenodd"><path style="opacity:.961" fill="#b81525" d="M477.5 4.5a6738.88 6738.88 0 0 0 85 1.5 126.096 126.096 0 0 1 25 6.5c6.001 6.376 6.668 13.376 2 21a216.318 216.318 0 0 1-54-3.5 470.215 470.215 0 0 1-35-2 54.644 54.644 0 0 1-7-2 170.12 170.12 0 0 1-12-9.5 158.217 158.217 0 0 0-9 12.5C310.769 44.17 185.936 119.67 98 255.5a357.482 357.482 0 0 1-12.5 22 2459.9 2459.9 0 0 1-27 55.5c-1 .667-2 .667-3 0a202.204 202.204 0 0 0-16-10.5c-1.13-1.574-1.297-3.241-.5-5 13.48-34.459 30.813-66.792 52-97a403.709 403.709 0 0 0 19-19 125.422 125.422 0 0 1 19.5-31 894.154 894.154 0 0 0 24-24.5 190.558 190.558 0 0 1 19-14 348.61 348.61 0 0 0 15-16.5 603.92 603.92 0 0 1 60-42.5 1694.665 1694.665 0 0 1 73-36 118.247 118.247 0 0 1 32-8l26-10c32.623-8.527 65.623-13.36 99-14.5z"/><path style="opacity:.969" fill="#b81625" d="M601.5 16.5c9.451-.395 18.785.438 28 2.5 45.023 13.552 88.023 31.552 129 54a816.687 816.687 0 0 1 38 26c4.953 5.903 8.62 12.569 11 20a54.631 54.631 0 0 1 16 3c13.205 8.538 24.038 19.371 32.5 32.5a882.49 882.49 0 0 1 25.5 24c41.695 48.497 72.862 103.164 93.5 164 3.163 11.601 3.663 23.268 1.5 35a302.082 302.082 0 0 0-11.5 4 3.943 3.943 0 0 1-2-1 22350.314 22350.314 0 0 1-27-68c-8.666-17.988-17.333-35.988-26-54a1286.264 1286.264 0 0 0-69.5-90 194.498 194.498 0 0 1-19-14 745.368 745.368 0 0 0-33-32 797.633 797.633 0 0 1-51-31.5c-33.664-18.493-68.997-33.16-106-44-9.886-4.538-18.719-10.704-26.5-18.5-2.486-3.581-3.652-7.581-3.5-12zm372 350a63.707 63.707 0 0 1-7-6.5 25.61 25.61 0 0 1 3.5-5.5 30.84 30.84 0 0 1 3.5 12z"/><path style="opacity:.953" fill="#b81625" d="M488.5 39.5c15.337-.167 30.67 0 46 .5a159.118 159.118 0 0 1 23.5 5.5 153.84 153.84 0 0 1-1 33c-2.166 1.621-4.666 2.455-7.5 2.5-6.664.61-13.33 1.11-20 1.5v9c20.625 5.369 41.625 7.535 63 6.5-5.82-6.818-12.987-11.652-21.5-14.5-.909-12.484 1.091-24.484 6-36a4.94 4.94 0 0 1 2.5-1c33.835 5.543 66.168 15.21 97 29a397.709 397.709 0 0 1-8.5 26 39.447 39.447 0 0 1-4.5 6c-7.88 1.211-15.714.878-23.5-1l-2.5 1a19.215 19.215 0 0 0 3.5 7 644.92 644.92 0 0 0 48.5 22.5c1.667.667 3.333.667 5 0a35.61 35.61 0 0 1 3-6 511.113 511.113 0 0 0-17.5-12.5c-1.195-7.009-.195-13.675 3-20a230.793 230.793 0 0 1 11-17 457.175 457.175 0 0 1 71.5 40.5 295.698 295.698 0 0 1 15 13.5c-5.826 11.347-13.326 21.347-22.5 30-7.041-4.692-14.708-8.025-23-10l-2.5 1a45.808 45.808 0 0 0 6.5 11 3194.1 3194.1 0 0 1 42.5 33 29.744 29.744 0 0 0 5-7.5 111.418 111.418 0 0 1-11.5-13.5c-1.895-4.315-1.895-8.648 0-13a110.749 110.749 0 0 1 18.5-21c3.986 2.662 7.986 5.328 12 8a2254.795 2254.795 0 0 1 40.5 39 303.894 303.894 0 0 1 18 23c.667 1.667.667 3.333 0 5-5.65 8.651-13.15 15.151-22.5 19.5-6.246.165-11.579-2.168-16-7-4.137-2.392-8.47-2.892-13-1.5a678.516 678.516 0 0 0 31.5 44 28.986 28.986 0 0 0 9.5 6l2-1c-2.152-6.98-4.319-13.98-6.5-21-.808-2.079-.641-4.079.5-6 7.753-9.382 17.42-16.048 29-20 18.238 26.04 34.071 53.373 47.5 82 .498 3.317.665 6.65.5 10a227.811 227.811 0 0 1-33.5 14 387.943 387.943 0 0 0-15-21c-2.455 3.686-3.455 7.686-3 12a324.54 324.54 0 0 1 17.5 45h9a216.926 216.926 0 0 1-1-24c10.549-5.515 21.716-9.515 33.5-12l2 2a2825.94 2825.94 0 0 1 21 73 83.862 83.862 0 0 1 .5 27 656.062 656.062 0 0 1-34.5 4 622.759 622.759 0 0 0-9.5-23c-4.34 1.178-6.673 4.012-7 8.5a500.809 500.809 0 0 1 6 51.5h9c.335-7.53 2.002-14.697 5-21.5l10-4a292.14 292.14 0 0 0 20.5-1.5 6.293 6.293 0 0 1 3 1 68.64 68.64 0 0 1 4 16 628.912 628.912 0 0 1-2 82 15.256 15.256 0 0 1-1.5 4.5c-11.369.793-22.702.46-34-1-1.467-1.098-2.301-2.598-2.5-4.5a95.788 95.788 0 0 0-3.5-20 65.765 65.765 0 0 0-9 2.5 833.316 833.316 0 0 1-8 58.5c5.452.356 9.285-1.977 11.5-7l6-12c2.07-2.287 4.57-3.953 7.5-5a346.032 346.032 0 0 1 29 6 197.894 197.894 0 0 1-5.5 40 42223.564 42223.564 0 0 0-16 46l-7 15a3.647 3.647 0 0 1-1.5 1 226.969 226.969 0 0 1-31-16l-1-3.5a1733.117 1733.117 0 0 1 4-20.5c-4.374-.596-8.208.737-11.5 4-5.024 12.04-10.024 24.04-15 36a85.115 85.115 0 0 0-4.5 17c3.127.376 6.127.376 9 0 3.335-5.677 6.668-11.344 10-17 12.411 1.883 23.578 6.55 33.5 14 .68 5.304-.32 10.304-3 15-12.439 24.933-27.272 48.433-44.5 70.5-6.057 1.162-11.723.162-17-3a64.556 64.556 0 0 1-14.5-12.5 12.494 12.494 0 0 1 0-7c5.269-7.147 7.269-15.147 6-24a93.285 93.285 0 0 0-12 11 705.83 705.83 0 0 1-23 27c-2.969 4.601-4.802 9.601-5.5 15a27.197 27.197 0 0 0 12-3.5 225.759 225.759 0 0 1 11.5-8.5c11.479 5.971 20.979 14.138 28.5 24.5a476.343 476.343 0 0 1-63 64c-4.959 4.56-10.292 5.227-16 2a327.51 327.51 0 0 1-19-24 350.73 350.73 0 0 1 13.5-13.5c1.691-3.917 1.857-7.917.5-12a71.689 71.689 0 0 0-9 4.5 836.18 836.18 0 0 0-38.5 29.5l-6.5 8.5c5.415 1.203 10.748 1.203 16 0l10.5-8.5c10.566 8.404 18.733 18.737 24.5 31a189.853 189.853 0 0 1-21 15.5c-17.325 9.66-34.659 19.327-52 29a95.527 95.527 0 0 1-14.5 4.5 14.985 14.985 0 0 1-4.5-1c-6.21-9.302-10.543-19.469-13-30.5a6.293 6.293 0 0 1 1-3 232.82 232.82 0 0 1 17-8.5v-10c-12.295 2.266-23.962 6.433-35 12.5a163.236 163.236 0 0 1-23 7.5v10a97.176 97.176 0 0 0 23.5-5c6.58 11.011 11.414 22.844 14.5 35.5a9.568 9.568 0 0 1-3 3c-28.401 10.82-57.734 18.486-88 23-3.054.821-6.054.655-9-.5-4.681-11.413-5.681-23.08-3-35a111.58 111.58 0 0 1 19-10.5c2.916-2.071 2.582-3.405-1-4a204.13 204.13 0 0 0-52 2c-6.748 1.292-9.414 5.459-8 12.5 8.34.191 16.674.524 25 1 2.08 11.83 2.414 23.663 1 35.5a72.836 72.836 0 0 1-15 4c-21.667.667-43.333.667-65 0a76.593 76.593 0 0 1-20.5-4.5c-.909-12.953.591-25.62 4.5-38a70.644 70.644 0 0 0 25-4.5c-5.983-4.22-12.65-6.887-20-8a1048.252 1048.252 0 0 1-45-5.5c-.277 2.948.056 5.781 1 8.5a220.377 220.377 0 0 1 19 7.5 51.574 51.574 0 0 1 2 8 4602.635 4602.635 0 0 0-2 28 181.25 181.25 0 0 1-37-3.5 577.892 577.892 0 0 1-44-13 175.332 175.332 0 0 1-16-7.5c-2.373-2.953-3.207-6.286-2.5-10 2.33-9.644 5.997-18.644 11-27a1442.365 1442.365 0 0 1 26.5 5 24.935 24.935 0 0 0-.5-7 18.778 18.778 0 0 0-5.5-4.5 392.316 392.316 0 0 1-41-18c-5.165-1.829-10.165-1.496-15 1 5.951 7.119 12.951 12.953 21 17.5-2.834 10.654-7.001 20.654-12.5 30-1.062 1.399-2.395 2.399-4 3l-10.5-3.5c-26.991-13.673-52.658-29.673-77-48 4.496-10.32 11.163-18.987 20-26 3-.667 6-.667 9 0a788.462 788.462 0 0 0 18.5 5.5c-1.195-6.197-4.362-11.364-9.5-15.5a582.859 582.859 0 0 0-32-25c-3.833-.167-7.499.499-11 2a83.933 83.933 0 0 1 14 18.5c-5.212 11.081-12.379 20.748-21.5 29-14.334-8.527-27.001-19.194-38-32a336.301 336.301 0 0 1-34-41c-.667-1-.667-2 0-3a140.286 140.286 0 0 1 29-20c6.178 7.439 14.012 11.772 23.5 13-1.082-5.495-3.249-10.495-6.5-15a306.104 306.104 0 0 1-26-35c-4.164-.864-8.331-.53-12.5 1a469.005 469.005 0 0 0 13 23.5 175.391 175.391 0 0 1-31.5 20.5 190.194 190.194 0 0 1-20-26 417.279 417.279 0 0 0-17-30c-6.535-11.106-10.368-23.106-11.5-36l19-9.5a166.168 166.168 0 0 1 10-2.5c2.412-.094 4.245.906 5.5 3l11.5 15.5c.832.688 1.498.521 2-.5 2.226-4.949 2.392-9.949.5-15a315.225 315.225 0 0 1-14.5-40h-11c1.258 8 1.591 16 1 24a243.913 243.913 0 0 1-30.5 12c-1.261-.259-2.261-.926-3-2a335.16 335.16 0 0 0-8-19 985.873 985.873 0 0 1-15-60 242.43 242.43 0 0 1-.5-22 218.264 218.264 0 0 1 36-1.5c3.765 6.29 6.098 13.123 7 20.5a32.462 32.462 0 0 0 8-.5 4.458 4.458 0 0 0 2-1.5 370.324 370.324 0 0 1-7-62c-3.21-.488-6.044.179-8.5 2-.91 8.784-2.41 17.45-4.5 26a213.84 213.84 0 0 1-37 0 74.197 74.197 0 0 1-1.5-12 1260.437 1260.437 0 0 1 0-71 73.341 73.341 0 0 1 5.5-20l2.5-1c11.162 2.11 22.329 4.11 33.5 6-.166 7.674 0 15.341.5 23a56.905 56.905 0 0 0 9.5 2 911.427 911.427 0 0 0 6-49.5 247.847 247.847 0 0 0-1.5-13.5 39.793 39.793 0 0 0-7 8 6338.087 6338.087 0 0 1-9.5 17 148.844 148.844 0 0 0-34-5 83.866 83.866 0 0 1 2.5-22 431.045 431.045 0 0 0 13-49 193.935 193.935 0 0 1 12.5-31c13.341 1.402 25.008 6.902 35 16.5a139.056 139.056 0 0 0-4 17.5c.63 3.438 2.797 5.438 6.5 6 1.653-.32 2.653-1.32 3-3a3058.64 3058.64 0 0 1 21.5-53 3.647 3.647 0 0 0-1-1.5 12.494 12.494 0 0 0-7 0 293.686 293.686 0 0 1-10.5 13.5c-1.126 1.444-2.626 2.11-4.5 2a226.734 226.734 0 0 1-30-12.5 6.291 6.291 0 0 1-1-3 353.577 353.577 0 0 1 7.5-19.5 1022.439 1022.439 0 0 1 33.5-56 70.894 70.894 0 0 1 12.5-12c11.634 3.908 20.467 11.241 26.5 22a122.473 122.473 0 0 0-7 23.5 11.532 11.532 0 0 0 1.5 5.5 338.441 338.441 0 0 0 33-38c4.143-5.286 6.31-11.286 6.5-18a65.129 65.129 0 0 0-16 9.5 95.592 95.592 0 0 0-9 3.5c-10.143-5.244-18.477-12.578-25-22a72.496 72.496 0 0 0 5.5-10 1599.994 1599.994 0 0 1 49.5-49.5c5.063-5.03 11.063-8.197 18-9.5a28.043 28.043 0 0 0 5 1.5c7.674 6.194 12.674 14.027 15 23.5-1.414 5.495-3.914 10.495-7.5 15a33.546 33.546 0 0 0-2.5 10c3.245-.38 6.245-1.547 9-3.5a579.525 579.525 0 0 1 27-19 148.948 148.948 0 0 0 18-17.5c-3.622-1.159-7.289-1.325-11-.5a320.485 320.485 0 0 1-17 8 133.581 133.581 0 0 1-17.5-21.5c-1.534-4.211-1.867-8.544-1-13a710.507 710.507 0 0 1 20.5-14.5c14.014-8.006 28.014-16.006 42-24 8.855-4.045 18.189-5.878 28-5.5 3.065 9.03 6.232 18.03 9.5 27 .667 2 .667 4 0 6a115.984 115.984 0 0 1-15.5 8.5c-2.191 3.23-2.524 6.73-1 10.5a491.435 491.435 0 0 0 57-22l1-2a25.962 25.962 0 0 0-5-7 82.549 82.549 0 0 0-20 6c-7.983-11.43-12.649-23.93-14-37.5 32.09-12.964 65.423-21.131 100-24.5a409.516 409.516 0 0 1 3.5 20 60.713 60.713 0 0 1-.5 19 117.593 117.593 0 0 0-18 3.5 18.622 18.622 0 0 0-3 8.5c12.671.167 25.338 0 38-.5a319.22 319.22 0 0 0 22-4c3.952-3.076 3.952-6.243 0-9.5a173.926 173.926 0 0 0-23-2 943.718 943.718 0 0 1-3-27c-2.085-7.466.582-11.633 8-12.5 8.51-.17 16.843-.67 25-1.5zm-4 13c19.278-1.139 38.278.528 57 5 .284 3.277-.049 6.443-1 9.5a290.18 290.18 0 0 0-24 1.5c-2.62 12.866-2.62 25.7 0 38.5 12.663.733 25.33 1.4 38 2 16.695 3.501 33.361 7.001 50 10.5a1495.624 1495.624 0 0 0 7-37 333.803 333.803 0 0 0-22-9.5c-.534-3.398-.534-6.898 0-10.5 22.355 3.62 43.855 9.954 64.5 19 .836 3.656.169 6.99-2 10a253.869 253.869 0 0 0-22-5l-2.5 1c-5.883 11.63-8.883 23.964-9 37a468.769 468.769 0 0 1 79.5 33 186.224 186.224 0 0 0 19.5-31c-8.588-5.799-15.588-13.132-21-22 2.946-1.155 5.946-1.321 9-.5 16.46 6.566 31.793 15.233 46 26a54.511 54.511 0 0 1 10 11.5 28.717 28.717 0 0 1-13 .5 149.107 149.107 0 0 1-17.5-9.5 311.757 311.757 0 0 0-19.5 31.5 466.18 466.18 0 0 1 33 24.5 1311.881 1311.881 0 0 0 32 28.5c3.711.825 7.378.659 11-.5a136.027 136.027 0 0 0 18-21 70.887 70.887 0 0 0-13-21 18.074 18.074 0 0 0 2-8c18.937 10.457 34.437 24.791 46.5 43a34.611 34.611 0 0 1 1 14 675.68 675.68 0 0 1-19.5-14.5c-2.53-1.422-5.197-1.755-8-1-9.503 5.835-16.503 13.835-21 24 6.616 11.296 14.782 21.463 24.5 30.5a439.512 439.512 0 0 0 25.5 36.5c3.333.667 6.667.667 10 0a209.768 209.768 0 0 0 21.5-13.5c-.824-5.816-2.491-11.482-5-17a112.97 112.97 0 0 1-.5-15c1.933.229 3.6 1.062 5 2.5a345.94 345.94 0 0 1 10.5 12.5 1100.909 1100.909 0 0 1 24.5 47.5c-3.764.094-7.43-.572-11-2a163.963 163.963 0 0 1-14-16.5c-10.405 3.682-20.072 8.682-29 15l-1 4a201.125 201.125 0 0 0 17.5 43 253.453 253.453 0 0 0 13.5 37.5c3.711.439 7.378.106 11-1a549.86 549.86 0 0 0 25-6.5 241.046 241.046 0 0 1 1-31 69.39 69.39 0 0 1 8.5 11 360.287 360.287 0 0 1 11.5 55.5c-2.947 1.665-5.947 2.165-9 1.5a138.329 138.329 0 0 1-7.5-21c-.347-1.68-1.347-2.68-3-3-7.85 1.78-15.683 3.614-23.5 5.5-3.417 1.19-6.417 3.023-9 5.5a14.985 14.985 0 0 0-1 4.5 659.89 659.89 0 0 1 10 82.5 362.008 362.008 0 0 0 38-1 264.316 264.316 0 0 1 5-26 55.05 55.05 0 0 1 6.5 6c2.924 19.298 3.09 38.631.5 58h-12c.398-6.391.398-12.724 0-19-12.311-4.261-24.978-5.928-38-5a669.08 669.08 0 0 1-13 88c2.755 3.564 6.422 5.731 11 6.5a168.09 168.09 0 0 0 22.5 4.5c4.58-5.606 7.913-11.939 10-19 2.849-1.809 6.015-2.809 9.5-3a156.235 156.235 0 0 1-8.5 47 189.847 189.847 0 0 0-8 18c-3.017.281-6.183.281-9.5 0a145.29 145.29 0 0 0 3-21 16.08 16.08 0 0 0-1.5-7 43.4 43.4 0 0 0-9.5-4.5 19566.32 19566.32 0 0 1-22-6 1036.217 1036.217 0 0 0-19.5 49.5 293.84 293.84 0 0 0-15 30c-.81 3.387.356 5.887 3.5 7.5a1027.537 1027.537 0 0 1 26.5 15.5 109.705 109.705 0 0 0 14.5-20.5 32.462 32.462 0 0 1 8-.5c-3.78 22.243-13.78 41.077-30 56.5a19.95 19.95 0 0 0-8 2.5l-1-2c2.173-6.343 4.34-12.676 6.5-19 .667-2 .667-4 0-6-8.342-8.337-18.176-14.337-29.5-18-11.688 19.739-25.521 37.739-41.5 54a673.604 673.604 0 0 0-10.5 16.5 119.493 119.493 0 0 0 23 25.5 233.986 233.986 0 0 0 15-10.5 36.487 36.487 0 0 1 11-3.5 40.522 40.522 0 0 1-3.5 12 1034.247 1034.247 0 0 1-38.5 38c-2.946 1.155-5.946 1.321-9 .5a11.295 11.295 0 0 1-2-4 440.234 440.234 0 0 1 15-20.5 150.718 150.718 0 0 0-18-23 24.49 24.49 0 0 0-6.5-2 36.012 36.012 0 0 0-9.5 4.5 325.89 325.89 0 0 1-23 20 434.146 434.146 0 0 0-36.5 25.5 12.494 12.494 0 0 0 0 7 159.143 159.143 0 0 0 15.5 23.5c1.667.667 3.333.667 5 0 7.527-2.917 15.027-5.75 22.5-8.5.921 4.211.421 8.211-1.5 12-13.281 10.757-27.948 19.257-44 25.5a42.479 42.479 0 0 1-13 0c-1.41-.368-2.41-1.201-3-2.5a9844.206 9844.206 0 0 0 21-16.5 193.089 193.089 0 0 0-18-32.5c-18.69 10.34-38.357 18.506-59 24.5a91.834 91.834 0 0 0-20 9.5c-.92 11.008.746 21.674 5 32a146.365 146.365 0 0 1 31 4.5 142.754 142.754 0 0 1-13 9 425.34 425.34 0 0 1-50.5 12.5c-2.598-3.199-4.098-6.865-4.5-11 7.905-2.175 15.405-5.175 22.5-9a160.92 160.92 0 0 0-2-15 948.191 948.191 0 0 1-5.5-18 128.507 128.507 0 0 0-16 .5 280.578 280.578 0 0 1-68 7 1689.64 1689.64 0 0 0-4.5 7.5 481.165 481.165 0 0 0-.5 31c8.353.117 16.687.617 25 1.5 1.303 3.468 1.303 6.968 0 10.5a404.322 404.322 0 0 1-67-1v-9a171.762 171.762 0 0 1 27-2 142.745 142.745 0 0 0-1-39 798.585 798.585 0 0 1-36-2.5 655.677 655.677 0 0 0-32-5 395.672 395.672 0 0 1-16-4.5c-7.858 11.1-11.192 23.433-10 37a264.643 264.643 0 0 1 23 12 37.714 37.714 0 0 1-8 3.5 75.255 75.255 0 0 1-23-2c-11.84-3.009-23.006-7.509-33.5-13.5a45.8 45.8 0 0 1-2.5-9 441.06 441.06 0 0 1 27 5 218.726 218.726 0 0 0 9-36l-1-2a196.658 196.658 0 0 1-25-8.5 1153.183 1153.183 0 0 0-52-23c-1.941-.743-3.774-.576-5.5.5a324.533 324.533 0 0 0-12 21 30.485 30.485 0 0 0 0 11c4.419 4.786 9.586 8.453 15.5 11-.433 2.785-1.766 5.119-4 7-1.223 1.114-2.556 1.281-4 .5-18.516-7.503-35.349-17.669-50.5-30.5-.821-3.054-.655-6.054.5-9a755.911 755.911 0 0 0 27 8.5 110.707 110.707 0 0 0 14.5-22.5c.824-3.382.657-6.716-.5-10a1293.426 1293.426 0 0 0-34-24.5 679.157 679.157 0 0 1-27-24c-4.785-2.31-9.119-1.643-13 2-6.99 5.861-12.657 12.695-17 20.5a60.339 60.339 0 0 0 9.5 13c2.631 3.589 3.797 7.589 3.5 12a28.778 28.778 0 0 1-11-2.5 257.858 257.858 0 0 1-27.5-26.5 301.945 301.945 0 0 1-12.5-17 47.478 47.478 0 0 0 4.5-8 131.93 131.93 0 0 0 22.5 18c9.755-7.087 17.755-15.754 24-26a275.324 275.324 0 0 0-26-34 1025.106 1025.106 0 0 1-23.5-34c-1.743-2.128-3.909-2.961-6.5-2.5a106.076 106.076 0 0 0-24.5 17.5 28.931 28.931 0 0 1-1.5 4c1.748 7.758 4.748 14.924 9 21.5-3.064 1.932-6.398 2.599-10 2-11.029-14.45-20.196-29.95-27.5-46.5a43.233 43.233 0 0 1 .5-16c7.177 6.039 13.177 13.039 18 21 12.341-3.493 22.674-9.993 31-19.5a15449.772 15449.772 0 0 0-30.5-76.5c-12.029-2.289-23.529-.622-34.5 5l-2 28a17.713 17.713 0 0 1-6.5-4 83.205 83.205 0 0 1-5-12 404.802 404.802 0 0 1-9.5-39c.691-4.746 2.358-9.079 5-13 3.522 7.707 7.022 15.374 10.5 23l2.5 2.5c12.476.759 23.809-2.408 34-9.5 1.152-2.606 1.318-5.273.5-8a691.66 691.66 0 0 1-6-29 457.162 457.162 0 0 0-3.5-51 343.225 343.225 0 0 0-37 1 54065.72 54065.72 0 0 0-5 22c-3.24.476-6.573.476-10 0-.167-16.337 0-32.67.5-49a64.803 64.803 0 0 1 8-18c2.09 3.345 3.424 7.012 4 11 .5 5.657.666 11.324.5 17 11.842.611 23.675 1.278 35.5 2a3.943 3.943 0 0 0 2-1l9-49a133.276 133.276 0 0 0 1.5-39 127.464 127.464 0 0 0-32-10 237.695 237.695 0 0 0-8.5 25c-3.394.956-6.894 1.289-10.5 1a165.946 165.946 0 0 1 8.5-44c2.603-7.705 6.103-14.871 10.5-21.5a66.737 66.737 0 0 1 6-2.5c1.37 9.148.704 18.148-2 27 11.504 5.844 23.838 9.177 37 10a357.535 357.535 0 0 1 25.5-62 7303.273 7303.273 0 0 0 7.5-19c-4.252-4.745-9.252-8.578-15-11.5a513.325 513.325 0 0 0-17-7.5 154.402 154.402 0 0 1-12 16.5c-2.917 2.431-6.25 3.598-10 3.5a105.824 105.824 0 0 1 5.5-19 247.265 247.265 0 0 1 25.5-38.5 27.866 27.866 0 0 1 11-1.5 280.4 280.4 0 0 0-10 24c2.806 5.972 7.139 10.472 13 13.5l16.5 7.5a278.05 278.05 0 0 0 27-36 631.513 631.513 0 0 1 19.5-22 89.127 89.127 0 0 0 6-11 32.792 32.792 0 0 0-5.5-12 117.247 117.247 0 0 0-17.5-14 186.516 186.516 0 0 1-24.5 15 58.53 58.53 0 0 1 1-10c10.406-14.075 22.573-26.575 36.5-37.5a155.77 155.77 0 0 0 10.5-5.5c3.39 2.45 4.89 5.783 4.5 10-6.214 4.541-11.881 9.874-17 16 7.062 10.563 15.895 19.229 26.5 26a20.442 20.442 0 0 0 6.5-3.5c17.877-17.12 37.544-31.787 59-44 4.717-3.937 5.217-8.437 1.5-13.5a168.996 168.996 0 0 0-14.5-23c-.865-1.083-1.865-1.249-3-.5a134.043 134.043 0 0 1-14 6.5 47.216 47.216 0 0 1-11-4.5c15.263-13.134 32.263-23.467 51-31 4-.667 8-.667 12 0a241.122 241.122 0 0 0-20 23c3.79 11.414 9.29 21.914 16.5 31.5a2020.062 2020.062 0 0 1 38.5-18.5 522.066 522.066 0 0 0 41-14.5c.225-12.046-1.942-23.713-6.5-35a219.33 219.33 0 0 1-24.5-1c-1.295-2.866-1.295-5.7 0-8.5a270.686 270.686 0 0 1 55-13.5c4.314-.026 7.314 1.974 9 6-6.535 5.183-13.868 8.85-22 11-1.434 12.096.566 23.596 6 34.5a34.251 34.251 0 0 0 8 1.5 180.193 180.193 0 0 0 29-5.5c17.377-.806 34.71-1.972 52-3.5a23.832 23.832 0 0 1 1-9 297.96 297.96 0 0 0-3-29 230.924 230.924 0 0 1-23-3.5 4.451 4.451 0 0 1-2-1.5l2-7a114.941 114.941 0 0 1 9-4zm29 598c1.574.437 2.741 1.437 3.5 3a447.998 447.998 0 0 0 21 34 335.936 335.936 0 0 1 15.5 31 520.062 520.062 0 0 1-78 1c-.061-3.549.773-6.882 2.5-10a964.388 964.388 0 0 0 26-47 126.206 126.206 0 0 1 9.5-12z"/><path style="opacity:.969" fill="#b81625" d="M462.5 119.5c72.271-6.58 140.938 5.587 206 36.5 24.327 11.671 47.327 25.671 69 42a3798.531 3798.531 0 0 1 41 35.5 156.324 156.324 0 0 1 16.5 24c16.886 15.161 30.553 32.827 41 53 2.153 9.339 1.653 18.505-1.5 27.5l14 1a275.944 275.944 0 0 1 25.5 63.5 1166.552 1166.552 0 0 0 13 76c4.319 77.817-12.681 150.15-51 217a311.907 311.907 0 0 0-26.5 39c-1.366 1.822-3.2 2.822-5.5 3a19.743 19.743 0 0 1-7.5-2.5 40.943 40.943 0 0 0-7-5c13.789-16.81 25.623-34.976 35.5-54.5 19.539-36.953 32.539-76.287 39-118 6.406-53.911 3.073-107.244-10-160a1493.187 1493.187 0 0 1-21-52l-9.5-18.5a495.924 495.924 0 0 0-44-62.5 670.748 670.748 0 0 0-44-43 247.778 247.778 0 0 1-12-14.5 108.365 108.365 0 0 1-18-8 2248.59 2248.59 0 0 0-49-30 396.768 396.768 0 0 1-49-18 798.556 798.556 0 0 0-82-13 2180.305 2180.305 0 0 0-66 0 49.796 49.796 0 0 1-13-3.5 666.36 666.36 0 0 1-26 12.5c-34.217 8.451-66.884 20.784-98 37a262.61 262.61 0 0 1-28 18.5 100833.318 100833.318 0 0 0-44 33 2072.5 2072.5 0 0 1-36.5 41l-33 52a1500.824 1500.824 0 0 0-22 47 42.36 42.36 0 0 1-8.5 1.5 75.78 75.78 0 0 1 6 8.5c-9.327 26.918-15.494 54.584-18.5 83-.941 4.2-2.441 8.2-4.5 12a89.688 89.688 0 0 1 2.5 9c-.387 134.058 53.447 239.891 161.5 317.5a1669.597 1669.597 0 0 0 57 31 252.069 252.069 0 0 0 36 13 160.999 160.999 0 0 1 15 8l2 2a135.384 135.384 0 0 0-8 7.5c-2.456 1.448-5.122 2.114-8 2-7.475-.9-14.808-2.4-22-4.5-27.944-10.804-54.278-24.47-79-41a53826.557 53826.557 0 0 0-32-23 1734.5 1734.5 0 0 0-49.5-49.5 1193.813 1193.813 0 0 0-34-47c-21.046-33.105-36.38-68.772-46-107a35337.69 35337.69 0 0 0-10-46c-7.658-73.303 3.342-143.303 33-210a59.243 59.243 0 0 1 11-12 349.491 349.491 0 0 1 10-27c67.978-105.967 164.478-167.3 289.5-184zm51 531a126.206 126.206 0 0 0-9.5 12 964.388 964.388 0 0 1-26 47c-1.727 3.118-2.561 6.451-2.5 10a520.062 520.062 0 0 0 78-1 335.936 335.936 0 0 0-15.5-31 447.998 447.998 0 0 1-21-34c-.759-1.563-1.926-2.563-3.5-3z"/><path style="opacity:.992" fill="#b81525" d="M339.5 552.5c11.484-23.021 25.317-44.688 41.5-65 5.013-8.033 10.013-16.033 15-24 3.826-9.765 5.326-19.931 4.5-30.5a451.305 451.305 0 0 0-1.5-46.5c-1.174-5.833-4.007-10.666-8.5-14.5a604.559 604.559 0 0 0-32-26 80.32 80.32 0 0 1-15-19c5.994-.068 11.661 1.266 17 4 10.95 8.973 22.95 16.14 36 21.5 2.358-6.073 3.358-12.407 3-19-2.281-44.361.552-88.361 8.5-132 1.771-5 4.104-9.667 7-14 3.838 1.928 6.504 4.928 8 9a313.34 313.34 0 0 1 6 26 765.438 765.438 0 0 1 5.5 121 4.934 4.934 0 0 0 3-.5c11.607-10.601 22.107-22.101 31.5-34.5l14-13c.667 4 .667 8 0 12a91831.106 91831.106 0 0 0-48 72 97.662 97.662 0 0 0-3 24 1319.127 1319.127 0 0 1-1.5 48.5c.61 6.718 2.776 12.885 6.5 18.5l33 43a77.506 77.506 0 0 1 10.5 21c-4.104-.384-7.771-1.884-11-4.5a355.78 355.78 0 0 0-36.5-31.5l-1 1a294.505 294.505 0 0 1-2 16 1948.516 1948.516 0 0 1-2 78 133.079 133.079 0 0 1-7 31c-3.071 2.268-6.404 2.601-10 1a288.765 288.765 0 0 1-8-62 3289.007 3289.007 0 0 1-2-59 26.67 26.67 0 0 0-1.5-6.5c-1.049-.492-2.049-.326-3 .5a470.139 470.139 0 0 0-41 40.5 287.042 287.042 0 0 1-16 13.5z"/><path style="opacity:.99" fill="#b81525" d="M594.5 189.5c2.23 3.507 3.73 7.507 4.5 12 .667 38 .667 76 0 114a365.869 365.869 0 0 0-2 41c1.858 2.912 4.358 4.412 7.5 4.5a266.328 266.328 0 0 1 46.5-38.5c.098 3.939-.902 7.606-3 11a436.343 436.343 0 0 1-43 43 66.936 66.936 0 0 0-7 10 2459.438 2459.438 0 0 0-3 71 195.63 195.63 0 0 0 12 21 1816.74 1816.74 0 0 1 46.5 67c-2.72 2.462-5.72 2.629-9 .5a1123.748 1123.748 0 0 1-38-40.5c-4.687-2.563-9.687-3.896-15-4a638.502 638.502 0 0 1-11 108h-9a461.66 461.66 0 0 1-5.5-81l-2.5-24c-5.938-.22-10.938 1.78-15 6a616.6 616.6 0 0 1-43 50.5c-1.1.432-1.767-.068-2-1.5.443-4.739 1.943-9.072 4.5-13 23.928-30.26 42.261-63.593 55-100 .667-18 .667-36 0-54a2174.773 2174.773 0 0 0-56-55 110.834 110.834 0 0 1-9.5-14.5c4.176 1.622 8.51 3.289 13 5a655.901 655.901 0 0 0 41 27.5 113.665 113.665 0 0 0 13 6 2203.27 2203.27 0 0 0 5.5-74 1278.379 1278.379 0 0 1 10-77 244.286 244.286 0 0 1 5-15c2.389-3.388 5.556-5.388 9.5-6z"/><path style="opacity:.967" fill="#b81525" d="M33.5 340.5h19a273.006 273.006 0 0 1-1.5 18c-18.128 61.669-25.461 124.669-22 189a40.438 40.438 0 0 1-3 12c-.667 5-.667 10 0 15 11.761 18.723 17.594 39.223 17.5 61.5 9.952 11.548 13.118 24.715 9.5 39.5a15.046 15.046 0 0 1-3.5 6l1 1a41.16 41.16 0 0 1 10-3 900.852 900.852 0 0 1 29 56.5 887.795 887.795 0 0 0 33.5 53.5c23.49 26.49 47.99 51.99 73.5 76.5 37.452 30.889 78.452 55.889 123 75l50 18a540.934 540.934 0 0 1 52 13 822.56 822.56 0 0 1 80 8c9.027 5.508 18.694 9.341 29 11.5a10.413 10.413 0 0 0 5-1.5l14-15c104.906-11.234 195.906-51.901 273-122a1717.493 1717.493 0 0 0 47.5-50.5 4459.252 4459.252 0 0 0 42-57c20.558-40.32 37.225-82.32 50-126A1207.34 1207.34 0 0 0 977.5 519a1556.94 1556.94 0 0 1-5.5-75.5 574.361 574.361 0 0 1-7.5-54 73.909 73.909 0 0 1 21 4 11.38 11.38 0 0 0 2.5 2l5 15a530.396 530.396 0 0 1 7.5 109 198.913 198.913 0 0 0-14-1 31.116 31.116 0 0 0 1 11 115.45 115.45 0 0 0 11-5c2.12 23.979.284 47.645-5.5 71a468.461 468.461 0 0 0-13 56 1107.572 1107.572 0 0 1-23 58 185.61 185.61 0 0 0-17.5 36.5c-40.247 70.556-93.914 128.556-161 174a513.107 513.107 0 0 1-24 11 65.842 65.842 0 0 0-12 10c-7.366 4.347-14.699 8.68-22 13a7707.394 7707.394 0 0 1-57 23 1219.988 1219.988 0 0 1-64 18 592.93 592.93 0 0 0-62 7.5c-23.301-.02-46.635-.18-70-.5-57.877-4.084-113.21-17.751-166-41a321.003 321.003 0 0 1-24.5-17.5 222.642 222.642 0 0 1-29.5-10.5 300.142 300.142 0 0 1-27-19.5 294.405 294.405 0 0 1-42-29.5 1030.244 1030.244 0 0 1-39.5-36.5 196.076 196.076 0 0 1-15-22 72.367 72.367 0 0 1-.5-12 39.6 39.6 0 0 1-11.5-1 256.707 256.707 0 0 1-27-34c-21.62-32.146-38.288-66.813-50-104-9.96-22.749-17.293-46.415-22-71-15.558-81.493-12.225-162.159 10-242l10.5-21zm480 310a126.206 126.206 0 0 0-9.5 12 964.388 964.388 0 0 1-26 47c-1.727 3.118-2.561 6.451-2.5 10a520.062 520.062 0 0 0 78-1 335.936 335.936 0 0 0-15.5-31 447.998 447.998 0 0 1-21-34c-.759-1.563-1.926-2.563-3.5-3z"/><path style="opacity:.004" fill="#c84b55" d="M339.5 552.5c-.017 1.528-.684 2.028-2 1.5.544-.717 1.211-1.217 2-1.5z"/><path style="opacity:.979" fill="#b81625" d="M321.5 603.5a104.13 104.13 0 0 1 15 6c19.957 15.452 36.124 34.119 48.5 56 6.166 14.674 9.166 30.007 9 46a885.364 885.364 0 0 0-1 65c6.4 27.845 23.234 37.012 50.5 27.5 4.653-3.788 6.153-8.622 4.5-14.5a102.952 102.952 0 0 0-14.5-15c2.972-4.893 7.138-8.227 12.5-10 6.24.24 10.574 3.24 13 9 3.483 8.756 5.483 17.756 6 27-3.65 8.642-9.15 15.809-16.5 21.5l-8 3c-12.895 1.388-25.562.388-38-3-16.877-9.751-25.71-24.585-26.5-44.5a108.653 108.653 0 0 1 .5-23 1230.651 1230.651 0 0 1-3.5-62c-2.762-17.643-9.762-33.31-21-47a831.534 831.534 0 0 1-25-31 52.833 52.833 0 0 1-5.5-11z"/><path style="opacity:.978" fill="#b81625" d="M698.5 603.5c.543.06.876.393 1 1a111.869 111.869 0 0 1-10.5 17 827.353 827.353 0 0 0-35 42c-12.01 19.017-17.843 39.851-17.5 62.5.866 15.194 1.699 30.361 2.5 45.5-.061 21.133-8.728 37.467-26 49-12.753 4.722-25.92 6.222-39.5 4.5-17.056-3.559-26.056-14.059-27-31.5.67-5.36 1.503-10.693 2.5-16 5.414-9.452 13.581-13.119 24.5-11-1.134 8.253-5.301 14.586-12.5 19-2.006 11.244 2.494 18.077 13.5 20.5 10.193 2.317 20.193 1.651 30-2 8.696-8.56 13.862-19.06 15.5-31.5a587.465 587.465 0 0 0-1-48c2.279-26.185 10.946-49.851 26-71a540.345 540.345 0 0 0 17.5-22 449.745 449.745 0 0 0 18-17.5 142.083 142.083 0 0 1 18-10.5z"/><path style="opacity:.951" fill="#b81625" d="M512.5 629.5a4.934 4.934 0 0 1 3 .5l5.5 7.5a711.884 711.884 0 0 0 43 76l5.5 5.5a460.088 460.088 0 0 0 26 6.5c1.333 2 1.333 4 0 6a1950.92 1950.92 0 0 1-97 2.5 269.718 269.718 0 0 1-59 1 602.455 602.455 0 0 1-15-3.5l-2-5a4.457 4.457 0 0 1 2-1.5 261.577 261.577 0 0 1 18-3 100.378 100.378 0 0 0 16-5.5 1464.266 1464.266 0 0 0 37.5-63 462.237 462.237 0 0 1 16.5-24zm1 21a126.206 126.206 0 0 0-9.5 12 964.388 964.388 0 0 1-26 47c-1.727 3.118-2.561 6.451-2.5 10a520.062 520.062 0 0 0 78-1 335.936 335.936 0 0 0-15.5-31 447.998 447.998 0 0 1-21-34c-.759-1.563-1.926-2.563-3.5-3z"/><path style="opacity:.953" fill="#b81625" d="M785.5 749.5c2.384.925 3.384 2.758 3 5.5a19.717 19.717 0 0 1-1.5 6.5 838.928 838.928 0 0 1-49.5 47.5 185.944 185.944 0 0 1-27 15 295.364 295.364 0 0 1-34 24c-12.122 5.563-24.789 7.063-38 4.5-.6-4.016.4-7.516 3-10.5 18.737-9.347 37.404-18.68 56-28a738.919 738.919 0 0 0 51-40c11.244-3.447 20.578-9.78 28-19a97.564 97.564 0 0 0 9-5.5z"/><path style="opacity:.941" fill="#b81625" d="M497.5 797.5c9.978.96 19.978 1.793 30 2.5 4.05.794 8.05 1.794 12 3-10 8.346-21.167 14.513-33.5 18.5a226.481 226.481 0 0 0-8.5-1.5 136.392 136.392 0 0 1-24-12.5c-.857-2.543-2.19-4.877-4-7a599.425 599.425 0 0 1 28-3z"/><path style="opacity:.944" fill="#b81625" d="M623.5 848.5h4c-1.005 6.677-2.005 13.344-3 20-10.558 4.293-21.558 6.96-33 8a23.256 23.256 0 0 1-6.5-1 25.05 25.05 0 0 0-2.5-8.5c.259-1.261.926-2.261 2-3 12.395-6.871 25.395-12.037 39-15.5z"/><path style="opacity:.943" fill="#b81524" d="M435.5 864.5a5298.737 5298.737 0 0 0 59 4.5l7 5c1.304.804 1.971 1.971 2 3.5a37.949 37.949 0 0 1-4 9c-22.073 2.577-43.74.911-65-5 .135-5.681.468-11.348 1-17z"/><path style="opacity:.767" fill="#b91c29" d="M566.5 867.5c3.974 1.121 7.64 2.954 11 5.5a105.058 105.058 0 0 1-11 3 12.494 12.494 0 0 1-7 0c2.947-2.436 5.28-5.269 7-8.5z"/></svg>